<?xml version="1.0" encoding="UTF-8"?>
<svg xmlns="http://www.w3.org/2000/svg" xmlns:xlink="http://www.w3.org/1999/xlink" width="75pt" height="59pt" viewBox="0 0 75 59" version="1.1">
<g id="surface1">
<path style=" stroke:none;fill-rule:evenodd;fill:rgb(13.699341%,12.199402%,12.5%);fill-opacity:1;" d="M 9.429688 43.464844 L 65.160156 43.464844 L 65.160156 15.601563 L 9.429688 15.601563 L 9.429688 43.464844 "/>
<path style=" stroke:none;fill-rule:evenodd;fill:rgb(100%,84.698486%,0%);fill-opacity:1;" d="M 17.347656 34.507813 L 23.53125 34.507813 L 23.53125 24.558594 L 17.347656 24.558594 Z M 16.097656 23.304688 L 24.789063 23.304688 L 24.789063 35.761719 L 16.097656 35.761719 L 16.097656 23.304688 "/>
<path style=" stroke:none;fill-rule:evenodd;fill:rgb(100%,100%,100%);fill-opacity:1;" d="M 30.566406 28.894531 L 30.027344 28.894531 C 29.320313 27.898438 28.621094 26.90625 27.921875 25.785156 L 27.914063 25.785156 L 27.914063 28.894531 L 27.320313 28.894531 L 27.320313 24.558594 L 27.859375 24.558594 C 28.566406 25.550781 29.265625 26.535156 29.957031 27.648438 L 29.96875 27.648438 L 29.96875 24.558594 L 30.566406 24.558594 L 30.566406 28.894531 "/>
<path style=" stroke:none;fill-rule:evenodd;fill:rgb(100%,100%,100%);fill-opacity:1;" d="M 32.261719 24.558594 L 30.765625 28.894531 L 31.40625 28.894531 L 31.785156 27.710938 L 33.09375 27.710938 L 33.433594 28.894531 L 34.265625 28.894531 L 32.882813 24.558594 Z M 31.976563 27.179688 C 32.152344 26.609375 32.324219 26.082031 32.480469 25.414063 L 32.492188 25.414063 C 32.664063 26.082031 32.820313 26.609375 32.980469 27.179688 L 31.976563 27.179688 "/>
<path style=" stroke:none;fill-rule:evenodd;fill:rgb(100%,100%,100%);fill-opacity:1;" d="M 34.964844 28.894531 L 34.964844 25.140625 L 33.824219 25.140625 L 33.824219 24.558594 L 36.84375 24.558594 L 36.84375 25.140625 L 35.707031 25.140625 L 35.707031 28.894531 L 34.964844 28.894531 "/>
<path style=" stroke:none;fill-rule:evenodd;fill:rgb(100%,100%,100%);fill-opacity:1;" d="M 37.085938 24.558594 L 37.824219 24.558594 L 37.824219 28.894531 L 37.085938 28.894531 L 37.085938 24.558594 "/>
<path style=" stroke:none;fill-rule:evenodd;fill:rgb(100%,100%,100%);fill-opacity:1;" d="M 40.117188 28.96875 C 41.25 28.96875 41.957031 27.960938 41.957031 26.664063 C 41.957031 25.449219 41.175781 24.484375 40.117188 24.484375 C 39.058594 24.484375 38.277344 25.449219 38.277344 26.664063 C 38.277344 27.960938 38.980469 28.96875 40.117188 28.96875 Z M 40.117188 28.347656 C 39.339844 28.347656 39.070313 27.492188 39.070313 26.664063 C 39.070313 25.863281 39.378906 25.101563 40.117188 25.101563 C 40.851563 25.101563 41.160156 25.863281 41.160156 26.664063 C 41.160156 27.492188 40.890625 28.347656 40.117188 28.347656 "/>
<path style=" stroke:none;fill-rule:evenodd;fill:rgb(100%,100%,100%);fill-opacity:1;" d="M 45.652344 28.894531 L 45.113281 28.894531 C 44.40625 27.898438 43.707031 26.90625 43.007813 25.785156 L 43.003906 25.785156 L 43.003906 28.894531 L 42.410156 28.894531 L 42.410156 24.558594 L 42.945313 24.558594 C 43.652344 25.550781 44.351563 26.535156 45.042969 27.648438 L 45.058594 27.648438 L 45.058594 24.558594 L 45.652344 24.558594 L 45.652344 28.894531 "/>
<path style=" stroke:none;fill-rule:evenodd;fill:rgb(100%,100%,100%);fill-opacity:1;" d="M 47.351563 24.558594 L 45.851563 28.894531 L 46.496094 28.894531 L 46.875 27.710938 L 48.179688 27.710938 L 48.523438 28.894531 L 49.351563 28.894531 L 47.96875 24.558594 Z M 47.066406 27.179688 C 47.238281 26.609375 47.410156 26.082031 47.566406 25.414063 L 47.582031 25.414063 C 47.753906 26.082031 47.90625 26.609375 48.070313 27.179688 L 47.066406 27.179688 "/>
<path style=" stroke:none;fill-rule:evenodd;fill:rgb(100%,100%,100%);fill-opacity:1;" d="M 49.566406 24.558594 L 50.304688 24.558594 L 50.304688 28.3125 L 51.773438 28.3125 L 51.773438 28.894531 L 49.566406 28.894531 L 49.566406 24.558594 "/>
<path style=" stroke:none;fill-rule:evenodd;fill:rgb(100%,100%,100%);fill-opacity:1;" d="M 30.109375 32.523438 L 30.109375 34.3125 C 29.710938 34.464844 29.296875 34.578125 28.875 34.578125 C 27.597656 34.578125 26.792969 33.585938 26.792969 32.308594 C 26.792969 31.125 27.597656 30.09375 28.902344 30.09375 C 29.300781 30.09375 29.707031 30.242188 29.953125 30.425781 L 29.710938 30.941406 C 29.511719 30.820313 29.203125 30.714844 28.917969 30.714844 C 28.125 30.714844 27.585938 31.339844 27.585938 32.324219 C 27.585938 33.351563 28.207031 33.957031 28.84375 33.957031 C 29.042969 33.957031 29.210938 33.933594 29.367188 33.851563 L 29.367188 32.523438 L 30.109375 32.523438 "/>
<path style=" stroke:none;fill-rule:evenodd;fill:rgb(100%,100%,100%);fill-opacity:1;" d="M 32.765625 30.75 L 31.527344 30.75 L 31.527344 31.9375 L 32.738281 31.9375 L 32.738281 32.523438 L 31.527344 32.523438 L 31.527344 33.921875 L 32.988281 33.921875 L 32.988281 34.503906 L 30.78125 34.503906 L 30.78125 30.167969 L 32.765625 30.167969 L 32.765625 30.75 "/>
<path style=" stroke:none;fill-rule:evenodd;fill:rgb(100%,100%,100%);fill-opacity:1;" d="M 35.058594 34.578125 C 36.191406 34.578125 36.898438 33.566406 36.898438 32.273438 C 36.898438 31.058594 36.117188 30.09375 35.058594 30.09375 C 33.996094 30.09375 33.21875 31.058594 33.21875 32.273438 C 33.21875 33.566406 33.921875 34.578125 35.058594 34.578125 Z M 35.058594 33.957031 C 34.28125 33.957031 34.011719 33.105469 34.011719 32.273438 C 34.011719 31.476563 34.320313 30.714844 35.058594 30.714844 C 35.792969 30.714844 36.101563 31.476563 36.101563 32.273438 C 36.101563 33.105469 35.832031 33.957031 35.058594 33.957031 "/>
<path style=" stroke:none;fill-rule:evenodd;fill:rgb(100%,100%,100%);fill-opacity:1;" d="M 40.464844 32.523438 L 40.464844 34.3125 C 40.066406 34.464844 39.652344 34.578125 39.230469 34.578125 C 37.957031 34.578125 37.148438 33.585938 37.148438 32.308594 C 37.148438 31.125 37.957031 30.09375 39.257813 30.09375 C 39.660156 30.09375 40.0625 30.242188 40.308594 30.425781 L 40.066406 30.941406 C 39.867188 30.820313 39.5625 30.714844 39.277344 30.714844 C 38.480469 30.714844 37.941406 31.339844 37.941406 32.324219 C 37.941406 33.351563 38.5625 33.957031 39.199219 33.957031 C 39.398438 33.957031 39.566406 33.933594 39.722656 33.851563 L 39.722656 32.523438 L 40.464844 32.523438 "/>
<path style=" stroke:none;fill-rule:evenodd;fill:rgb(100%,100%,100%);fill-opacity:1;" d="M 43.773438 34.503906 L 42.898438 32.707031 C 43.375 32.453125 43.648438 31.9375 43.648438 31.417969 C 43.648438 30.574219 43.132813 30.167969 42.300781 30.167969 L 41.144531 30.167969 L 41.144531 34.503906 L 41.890625 34.503906 L 41.890625 32.867188 L 42.222656 32.867188 L 42.921875 34.503906 Z M 41.890625 30.75 L 42.21875 30.75 C 42.65625 30.75 42.90625 31.003906 42.90625 31.449219 C 42.90625 32.03125 42.550781 32.292969 42.199219 32.308594 C 42.125 32.316406 41.949219 32.324219 41.890625 32.328125 L 41.890625 30.75 "/>
<path style=" stroke:none;fill-rule:evenodd;fill:rgb(100%,100%,100%);fill-opacity:1;" d="M 45.28125 30.167969 L 43.785156 34.503906 L 44.429688 34.503906 L 44.804688 33.320313 L 46.113281 33.320313 L 46.453125 34.503906 L 47.285156 34.503906 L 45.902344 30.167969 Z M 45 32.789063 C 45.171875 32.21875 45.34375 31.691406 45.5 31.023438 L 45.511719 31.023438 C 45.6875 31.691406 45.839844 32.21875 46 32.789063 L 45 32.789063 "/>
<path style=" stroke:none;fill-rule:evenodd;fill:rgb(100%,100%,100%);fill-opacity:1;" d="M 48.574219 32.308594 C 48.496094 32.316406 48.3125 32.324219 48.261719 32.328125 L 48.261719 30.75 L 48.597656 30.75 C 49.03125 30.75 49.277344 31.003906 49.277344 31.449219 C 49.277344 32.03125 48.925781 32.292969 48.574219 32.308594 Z M 48.675781 30.167969 L 47.519531 30.167969 L 47.519531 34.503906 L 48.261719 34.503906 L 48.261719 32.867188 L 48.597656 32.867188 C 49.480469 32.867188 50.023438 32.148438 50.023438 31.417969 C 50.023438 30.574219 49.507813 30.167969 48.675781 30.167969 "/>
<path style=" stroke:none;fill-rule:evenodd;fill:rgb(100%,100%,100%);fill-opacity:1;" d="M 53.464844 34.503906 L 52.722656 34.503906 L 52.722656 32.417969 L 51.179688 32.417969 L 51.179688 34.503906 L 50.445313 34.503906 L 50.445313 30.167969 L 51.179688 30.167969 L 51.179688 31.832031 L 52.722656 31.832031 L 52.722656 30.179688 L 53.464844 30.179688 L 53.464844 34.503906 "/>
<path style=" stroke:none;fill-rule:evenodd;fill:rgb(100%,100%,100%);fill-opacity:1;" d="M 54.175781 30.167969 L 54.914063 30.167969 L 54.914063 34.503906 L 54.175781 34.503906 L 54.175781 30.167969 "/>
<path style=" stroke:none;fill-rule:evenodd;fill:rgb(100%,100%,100%);fill-opacity:1;" d="M 58.257813 30.953125 C 58.078125 30.84375 57.78125 30.714844 57.496094 30.714844 C 56.738281 30.714844 56.191406 31.339844 56.191406 32.324219 C 56.191406 33.351563 56.796875 33.957031 57.515625 33.957031 C 57.800781 33.957031 58.066406 33.863281 58.257813 33.742188 L 58.464844 34.28125 C 58.238281 34.433594 57.84375 34.578125 57.484375 34.578125 C 56.210938 34.578125 55.402344 33.585938 55.402344 32.308594 C 55.402344 31.125 56.203125 30.09375 57.496094 30.09375 C 57.882813 30.09375 58.238281 30.253906 58.496094 30.425781 L 58.257813 30.953125 "/>
</g>
</svg>
